<svg width="24" height="30" viewBox="0 0 24 30" fill="none" xmlns="http://www.w3.org/2000/svg">
<path fill-rule="evenodd" clip-rule="evenodd" d="M0.3125 6.14583C0.3125 3.21181 2.69098 0.833328 5.625 0.833328H21.2083C22.5775 0.833328 23.6875 1.94329 23.6875 3.31249V18.1875C23.6875 19.5567 22.5775 20.6667 21.2083 20.6667H5.625C3.86459 20.6667 2.4375 22.0938 2.4375 23.8542C2.4375 25.6145 3.86459 27.0417 5.625 27.0417H22.625C23.2118 27.0417 23.6875 27.5174 23.6875 28.1042C23.6875 28.6909 23.2118 29.1667 22.625 29.1667H5.625C2.69098 29.1667 0.3125 26.7882 0.3125 23.8542V6.14583ZM2.4375 19.6037C3.3254 18.9369 4.42905 18.5417 5.625 18.5417H21.2083C21.404 18.5417 21.5625 18.3831 21.5625 18.1875V3.31249C21.5625 3.1169 21.404 2.95833 21.2083 2.95833H5.625C3.86459 2.95833 2.4375 4.38542 2.4375 6.14583V19.6037Z" fill="white"/>
</svg>
