<svg width="9" height="28" viewBox="0 0 9 28" fill="none" xmlns="http://www.w3.org/2000/svg">
<path fill-rule="evenodd" clip-rule="evenodd" d="M21.7016 18.5448C24.4393 18.8066 27.1042 19.0613 27.1042 14C27.1042 6.76277 21.2372 0.895828 14 0.895828C6.76277 0.895828 0.895828 6.76277 0.895828 14C0.895828 21.2372 6.76277 27.1042 14 27.1042C19.7743 27.1042 18.6859 25.1561 17.5319 23.0907C16.8457 21.8625 16.1363 20.5927 16.8333 19.6667C17.9478 18.186 19.8415 18.367 21.7016 18.5448ZM16.125 6.91666C16.125 8.09027 15.1736 9.04166 14 9.04166C12.8264 9.04166 11.875 8.09027 11.875 6.91666C11.875 5.74305 12.8264 4.79166 14 4.79166C15.1736 4.79166 16.125 5.74305 16.125 6.91666ZM9.39583 11.875C9.39583 13.0486 8.44444 14 7.27083 14C6.09722 14 5.14583 13.0486 5.14583 11.875C5.14583 10.7014 6.09722 9.75 7.27083 9.75C8.44444 9.75 9.39583 10.7014 9.39583 11.875ZM20.7292 14C21.9027 14 22.8542 13.0486 22.8542 11.875C22.8542 10.7014 21.9027 9.75 20.7292 9.75C19.5556 9.75 18.6042 10.7014 18.6042 11.875C18.6042 13.0486 19.5556 14 20.7292 14Z" fill="white"/>
</svg>
